<svg version="1.1" viewBox="0 0 1756.8 478.93" xmlns="http://www.w3.org/2000/svg">
  <path
    fill="currentColor"
    d="m2.6972 478.04c-2.1673-2.6114-0.60847-16.245 3.7198-32.533 9.1354-34.379 13.159-55.602 15.469-81.6 2.0841-23.453 3.4377-105.48 2.7458-166.4-1.1584-102-2.7933-118.55-16.057-162.54-5.9386-19.695-8.574-31.422-7.4647-33.217 1.1526-1.865 5.9162-1.1319 23.911 3.6797 28.723 7.68 35.085 8.4613 87.01 10.686 87.527 3.7506 113.07 7.2328 135.47 18.466 12.219 6.1292 27.585 19.589 36.401 31.886 11.862 16.544 17.572 40.607 16.036 67.569-1.5328 26.897-10.594 44.359-33.662 64.868-4.1661 3.7039-7.5671 7.0639-7.5578 7.4667 0.01 0.40279 5.1018 3.8523 11.317 7.6657 34.713 21.3 52.728 46.293 59.2 82.133 2.1242 11.763 1.863 39.956-0.47225 50.967-3.6727 17.318-12.981 38.122-23.019 51.447-11.754 15.602-30.581 31.178-48.651 40.248-22.709 11.399-37.259 13.657-115.19 17.873-76.332 4.1299-94.121 6.558-119.53 16.315-18.248 7.0076-18.058 6.9592-19.671 5.0157zm173.87-91.089c23.205-4.07 38.619-11.068 50.876-23.098 13.516-13.266 18.181-27.069 17.096-50.584-0.92022-19.938-5.2308-29.119-20.425-43.501-14.391-13.622-24.709-17.329-54.795-19.684-24.864-1.9462-48.728 1.2655-53.384 7.1846-6.5595 8.3391-9.3085 60.578-5.4152 102.91 1.805 19.624 4.8664 25.713 14.51 28.861 5.0021 1.6329 37.938 0.30122 51.536-2.0838zm-8.3802-207.97c12.387-3.2356 20.663-7.9176 29.269-16.557 12.223-12.271 17.758-26.919 15.491-40.996-3.8586-23.96-25.603-36.909-64.295-38.289-13.821-0.49304-16.505-0.29815-22.98 1.6686-11.857 3.6016-15.098 8.7388-16.189 25.662-0.95321 14.787 0.42332 46.127 2.3237 52.904 4.5281 16.147 9.8055 18.988 33.828 18.207 9.6082-0.31245 17.113-1.177 22.553-2.598zm567.84 279.27c-28.49-2.131-47.051-9.1663-70.389-26.68-29.658-22.257-55.622-58.029-66.915-92.195-6.9785-21.111-7.7333-27.152-7.7296-61.867 3e-3 -27.181 0.28667-32.498 2.3392-43.83 4.5608-25.179 16.392-53.445 30.989-74.037 8.7987-12.412 26.608-30.404 38.34-38.732 17.411-12.36 41.96-23.172 60.043-26.444 10.23-1.851 41.151-1.8573 53.867-0.0109 14.224 2.0654 26.395 4.8946 41.187 9.5745 17.4 5.5051 24.724 6.9291 31.526 6.1297 7.5502-0.88739 8.3425 0.54977 6.7432 12.231-3.1917 23.311-18.424 66.586-23.437 66.586-0.8696 0-3.5976-3.36-6.0622-7.4667-2.4647-4.1067-6.0733-8.8187-8.019-10.471-5.3123-4.5117-19.4-10.902-30.204-13.702-8.6105-2.2312-11.969-2.488-32.587-2.4904l-22.987-3e-3 -7.9465 3.9574c-9.4745 4.7184-22.872 15.916-32.39 27.07-12.527 14.681-22.038 37.225-26.346 62.443-1.9389 11.352-2.1739 15.954-1.6817 32.929 0.41043 14.156 1.1872 22.514 2.7483 29.573 6.1013 27.587 16.946 48.23 33.634 64.028 15.375 14.554 31.839 20.836 54.488 20.792 24.846-0.0491 43.286-7.1863 63.386-24.534 5.0312-4.3424 10.433-8.8251 12.005-9.9615l2.8569-2.0663 4.7308 6.1516c12.816 16.665 24.82 38.29 23.71 42.713-1.8759 7.4741-23.933 24.131-46.955 35.458-26.693 13.133-48.105 17.163-78.944 14.856zm283.74 0.41526c-58.123-3.543-110-47.086-132.09-110.88-8.6609-25.005-11.955-48.026-11.045-77.201 1.1005-35.316 6.1216-57.728 19.137-85.418 23.118-49.183 60.168-79.693 109.6-90.253 7.1877-1.5354 13.709-1.9257 31.467-1.8832 24.682 0.0591 31.004 1.0133 55.859 8.4308 18.921 5.6466 26.578 7.182 35.587 7.1362 10.021-0.051 11.487 1.0131 11.487 8.3378 0 15.919-14.747 70.408-19.29 71.274-0.9523 0.18157-6.6558-4.3006-13.071-10.272-18.883-17.577-32.879-23.323-59.419-24.394-24.08-0.97137-38.01 3.0989-53.565 15.651-21.463 17.321-35.713 43.529-42.074 77.382-2.5531 13.588-2.533 48.427 0.036 62.4 5.2937 28.792 15.423 49.209 32.177 64.855 6.2695 5.8551 10.917 8.9462 21.415 14.245l13.408 6.7668 14.296 0.37064c7.863 0.20384 18.402-0.17575 23.42-0.84353 19.036-2.5333 27.812-7.0072 49.536-25.255l11.136-9.3538 7.909 8.474c10.796 11.567 23.63 26.92 24.979 29.879 0.8903 1.9538 0.6319 3.2131-1.3008 6.3402-5.3504 8.6571-34.253 29.907-54.26 39.894-17.441 8.7056-30.281 12.08-52.98 13.923-7.4779 0.60722-14.366 1.0175-15.308 0.91178-0.9415-0.10571-4.1118-0.33856-7.0451-0.51738zm-667.86-4.0436c-1.3675-3.5636 0.81344-9.8886 9.7721-28.34l9.1972-18.943-0.49024-115.58c-0.60329-142.24-1.3058-155.29-9.7843-181.72-2.6336-8.2108-4.7981-15.463-4.8101-16.117-0.0599-3.2882 37.418-2.3563 91.436 2.2735 56.802 4.8684 92.825 5.2265 110.62 1.0996 4.0169-0.93157 7.4053-1.5643 7.5299-1.4061 0.28104 0.35698-5.3245 41.488-6.9444 50.954-0.65251 3.8133-2.1901 11.334-3.4169 16.713-2.5855 11.336-0.14353 11.013-19.326 2.5586-16.25-7.1615-20.912-7.894-46.253-7.268-22.97 0.56743-29.758 1.8537-36.446 6.9063-6.4945 4.9066-7.0446 7.5898-7.0567 34.423-0.0126 27.908 0.7881 32.406 6.166 34.645 5.0081 2.0845 25.228 3.0169 38.07 1.7554 13.828-1.3582 22.986-4.1374 32-9.7116 8.6716-5.3624 11.267-5.5382 12.132-0.82198 2.2019 12.003 4.1472 70.576 2.4942 75.101-1.3171 3.6059-3.4986 3.7474-11.748 0.76162-14.415-5.2175-21.544-6.8442-32.745-7.4721-11.237-0.62995-29.523 1.1656-42.667 4.1894l-5.8667 1.3497 0.34719 25.035c0.64118 46.234 2.3412 54.703 11.919 59.378 6.8011 3.3194 23.452 5.0961 47.467 5.0648 28.791-0.0375 40.93-3.5412 54.409-15.704 7.61-6.8669 9.9883-8.2367 14.3-8.2367 2.5144 0 3.3602 0.54306 3.7378 2.4 0.26841 1.32 0.76885 16.32 1.1121 33.333 0.34322 17.013 0.929 36.161 1.3017 42.549l0.67767 11.616-10.569-0.716c-91.056-6.1683-143.33-6.4772-193.5-1.1435-7.92 0.84192-16.199 1.8195-18.398 2.1724-3.1113 0.49937-4.1457 0.25585-4.6653-1.0983zm1325.6-5.8246c-1.9611-0.50957-4.1211-1.4843-4.8-2.166-1.5984-1.6048-1.2564-16.354 0.9287-40.056 2.6893-29.171 3.7996-118.3 2.5913-208-0.5848-43.413-1.4815-85.448-1.9926-93.41-0.8631-13.442-1.1726-14.908-4.329-20.5-1.8698-3.313-3.0492-6.5903-2.6211-7.283 0.5826-0.94262 6.3059-1.0681 22.75-0.49869 38.743 1.3415 60.904 2.4025 61.443 2.9418 0.2889 0.28888 1.0026 51.366 1.5859 113.5 1.0725 114.24 2.6324 209.78 3.8567 236.21 0.563 12.154 0.4135 14.644-0.9463 15.773-0.8883 0.73713-5.3844 1.7943-9.9914 2.3492-11.598 1.397-64.116 2.2669-68.475 1.1342zm-518.03-0.81914c-2.3466-0.20441-5.3246-0.60733-6.6177-0.89538l-2.351-0.52372 3.8014-10.392c14.658-40.072 56.675-185.6 75.678-262.13 7.4157-29.861 8.6608-37.145 9.4806-55.467 0.8514-19.029 0.8856-19.17 5.0614-20.932 6.8974-2.9102 58.223-1.5711 69.254 1.8068 1.5671 0.47986 1.7575 2.5617 1.6311 17.834-0.1654 19.997 0.3488 22.971 12.21 70.624 19.442 78.109 47.912 179.83 63.866 228.2 6.9027 20.924 9.428 29.909 8.5574 30.447-1.8602 1.1496-30.11 2.1574-60.475 2.1574h-27.03l-9e-4 -25.867c0-50.023-3.8629-68.311-15.511-73.463-13.146-5.8152-43.898-4.6612-51.746 1.9419-1.7799 1.4976-4.2047 4.6215-5.3885 6.9418-6.0609 11.88-9.0923 39.511-7.8459 71.513l0.7373 18.933-34.523-0.17931c-18.988-0.0987-36.443-0.34656-38.79-0.55099zm133.23-163.45c1.7248-1.4314 1.7826-0.76068-2.2158-25.684-3.1184-19.438-9.6428-52.387-11.167-56.396-0.8528-2.243-1.2452-2.4835-1.9621-1.2024-1.902 3.3985-10.193 46.493-13.314 69.205-1.8535 13.488-1.5578 14.617 4.0399 15.427 6.1886 0.89495 23.027-0.0279 24.62-1.3494zm137.7 163.17c-4.6934-0.3763-9.9734-1.3925-11.733-2.2582-2.8629-1.4082-3.1935-2.0772-3.1384-6.3507 0.034-2.6272 1.3651-9.0696 2.9586-14.317 4.3057-14.178 4.9517-34.392 4.945-154.73-0.011-135.07-0.4655-143.19-9.0154-159.91-3.4451-6.7378-3.4213-9.6864 0.097-11.992 2.5926-1.6988 6.0624-1.7347 51.467-0.53289 68.443 1.8117 94.356 3.934 107.34 8.7913 8.5893 3.2137 18.396 10.015 26.682 18.504 11.671 11.958 18.564 25.195 20.875 40.091 1.8365 11.836 0.7532 49.995-1.6346 57.586-4.8542 15.431-13.791 27.008-29.176 37.798-12.219 8.5692-13.432 10.128-12.691 16.3 1.6237 13.524 27.141 72.656 59.624 138.17l16.792 33.867h-88.149l-0.6124-10.933c-1.0916-19.482-5.8202-33.054-27.409-78.667-11.838-25.011-23.95-48.54-29.515-57.333-6.139-9.7017-8.4471-7.2571-10.08 10.676-2.1386 23.479 1.3006 114.69 5.0267 133.32l0.5866 2.9333-32.351-0.16515c-17.793-0.0908-36.192-0.47304-40.885-0.84934zm96.533-215.42c12.255-3.8043 23.925-13.104 27.998-22.312 5.4188-12.25 3.0908-29.288-5.2729-38.59-8.4595-9.4091-26.175-16.197-46.221-17.71l-9.5706-0.72248 0.011 30.82c0 16.951 0.32 35.569 0.7043 41.374l0.6988 10.554 12.362-0.63034c7.755-0.39541 14.946-1.4325 19.296-2.7826z"
    stroke-width="1.0667" />
</svg>