<svg version="1.1" viewBox="0 0 2004.9 1070.2" xmlns="http://www.w3.org/2000/svg">
  <path
    fill="currentColor"
    d="m0.13649 1070.2c-4.2416-256.59 90.769-533.47 230.43-702.38 36.116-42.695 80.59-87.17 123.29-123.29 108.36-91.66 237.96-165.29 374.56-204.76 75.935-21.943 150.94-34.555 231.9-38.994 29.42-1.613 108.17-0.6643 135.47 1.6319 168.14 14.144 321.06 64.852 463.64 153.74 85.986 53.605 170.27 126.95 238.31 207.39 186.5 215.06 174.7 433.05 207.12 706.66zm1276.7-106.51c11.429-2.1128 24.612-6.2664 47.827-15.069 22.557-8.553 49.257-17.236 70.313-22.866 20.854-5.5758 32.14-9.226 38.917-12.588 14.223-7.0552 27.329-19.557 54.505-51.991 8.8481-10.56 18.355-21.057 21.126-23.327 5.2952-4.3377 15.92-10.684 32.318-19.304 13.908-7.311 20.407-13.008 36.888-32.339 24.41-28.63 33.636-35.71 48.834-37.48 4.3604-0.50774 9.3387-1.4769 11.063-2.1536 7.3313-2.8775 19.006-13.042 49.665-43.24 53.606-52.8 63.99-60.29 83.594-60.29 10.067 0 17.486 2.2827 40.672 12.516 9.9733 4.4014 22.453 9.6527 27.733 11.67 13.377 5.1096 30.519 14.3 51.34 27.527 9.7664 6.2038 17.925 11.112 18.13 10.907 0.3297-0.32963-8.5014-24.172-14.304-38.619-12.563-31.279-35.194-78.157-52.451-108.65-126.14-222.9-335.27-385.94-580.1-452.27l-9.9218-2.688-27.945 16.847c-57.413 34.613-99.042 60.838-98.35 61.958 0.4867 0.7875 11.228 2.0706 36.692 4.3829 16.384 1.4877 22.904 3.008 23.371 5.4496 0.4512 2.3573-1.5714 3.1857-34.457 14.113-58.441 19.419-84.181 32.726-107.47 55.561-14.941 14.651-12.847 15.463 10.977 4.2574 7.944-3.7365 20.262-8.7387 27.374-11.116 53.927-18.027 148.53-19.827 201.38-3.8304 25.569 7.7383 53.589 27.611 85.904 60.927 30.418 31.36 48.125 59.933 62.14 100.27 11.345 32.655 17.966 68.818 16.459 89.906-1.0212 14.293-2.148 14.727-13.354 5.1444-17.619-15.067-32.638-37.461-44.524-66.39-2.1694-5.28-5.1577-12-6.6407-14.933-2.3307-4.61-2.8097-5.044-3.5317-3.2-0.4596 1.1733-0.8693 6.0621-0.9104 10.864-0.092 10.689-1.242 14.203-4.6491 14.203-6.685 0-18.227-19.717-42.46-72.533l-10.033-21.867-0.3097 8.163c-0.2389 6.2983 0.4197 11.049 2.8831 20.797 1.7649 6.9837 2.7854 13.041 2.2819 13.545-1.8842 1.8841-7.8916-0.77061-15.385-6.7989-9.2128-7.4113-18.735-17.807-38.079-41.571-14.711-18.073-29.761-34.135-31.983-34.135-0.7964 0-0.5491 1.0702 0.6781 2.9333 14.873 22.58 25.31 41.892 23.578 43.625-0.3664 0.3665-5.3608-1.2731-11.098-3.6435-11.565-4.778-21.703-7.999-22.541-7.1615-1.0816 1.0816 7.054 8.3723 21.708 19.454 16.993 12.85 25.394 19.846 36.743 30.6 40.91 38.765 69.522 85.308 84.717 137.81 5.6507 19.523 7.2099 31.628 7.843 60.896 1.0116 46.766-3.0145 67.387-19.945 102.16-6.3132 12.966-9.8697 18.045-12.119 17.309-4.27-1.3983-10.114-40.239-15.121-100.51-1.511-18.187-3.1121-35.467-3.5577-38.4l-0.8104-5.3333-2.2404 3.5833c-1.2322 1.9708-3.3236 8.8118-4.6475 15.202-2.6264 12.678-5.1171 18.014-8.4082 18.014-3.8022 0-9.5812-6.3769-13.907-15.346-8.1823-16.966-12.227-39.139-13.802-75.673-0.8657-20.069-1.3582-24.407-2.6145-23.026-0.2223 0.24444-3.6182 8.8444-7.5463 19.111-10.877 28.427-13.145 31.384-18.257 23.798-2.3775-3.5279-15.855-42.969-24.535-71.798-2.7377-9.0933-5.4312-17.253-5.9857-18.133-0.649-1.0304-0.83 3.3369-0.5083 12.267 0.5222 14.495-0.2876 24.351-2.1543 26.218-1.9597 1.9596-6.4511-0.14991-13.068-6.1374-3.5611-3.2226-6.4747-5.2158-6.4747-4.4294s1.8894 8.9224 4.1985 18.08c8.9172 35.362 13.31 74.909 12.604 113.47-0.4283 23.389-0.7075 26.475-3.2332 35.733-6.7616 24.786-26.897 66.133-32.205 66.133-4.5333 0-6.2873-14.833-9.6481-81.6-1.6431-32.641-3.2875-54.86-4.1217-55.695-1.1612-1.1611-11.89 18.711-16.967 31.428-1.471 3.6842-2.3223 4.5333-4.5452 4.5333-2.1936 0-3.1308-0.89775-4.7324-4.5333-4.3652-9.9091-7.4394-45.697-7.4675-86.933-0.011-12.467-0.4141-22.667-0.9014-22.667-0.4872 0-3.1844 7.32-5.9937 16.267-5.0803 16.179-10.493 29.261-13.793 33.333-1.7184 2.1208-1.7411 2.1185-3.864-0.38832-4.357-5.145-8.6721-23.866-15.998-69.407-1.7397-10.814-3.6064-20.106-4.1485-20.648-1.8592-1.8592-3.4401 3.5264-4.3417 14.791-0.492 6.1473-1.4815 11.884-2.1987 12.748-6.5198 7.8558-18.32-13.989-43.228-80.029-10.678-28.309-27.016-59.108-30.675-57.824-1.6673 0.5851-1.4819 5.4217 1.828 47.691 1.4931 19.067 9.9205 135.71 18.728 259.2 20.601 288.86 20.694 290.07 22.565 293.57 1.799 3.3617 6.7923 4.967 25.61 8.2337 31.291 5.4319 73.337 10.231 112.4 12.828 21.74 1.4456 67.577 0.59953 78.676-1.4522zm-454.68 0.39429c56.262-2.2014 105.36-7.7257 121.48-13.668 8.6709-3.1964 8.8761-4.4499 15.043-91.906 13.506-191.52 20.165-297.28 22.565-358.4 1.4597-37.169 1.883-158.46 0.5745-164.65l-0.8695-4.113-2.7281 3.5797c-9.2477 12.134-31.016 68.63-42.48 110.25-5.2578 19.088-10.111 33.6-11.237 33.6-1.8413 0-8.5976-6.7584-12.928-12.932-2.4182-3.4474-4.4472-6.2679-4.5089-6.2676-0.062 2.3e-4 -0.1221 12.84-0.1343 28.533-0.019 24.376-0.2831 29.116-1.8123 32.533-1.4577 3.2576-2.35 4-4.807 4-4.0833 0-6.5482-1.8011-18.817-13.75l-10.525-10.25 0.6432 4.3584c0.3538 2.3971 3.7515 14.036 7.5504 25.865 9.9834 31.084 11.53 41.118 9.152 59.377-1.5029 11.54-3.2459 15.94-6.4636 16.315-3.6705 0.42818-5.9124-2.198-14.382-16.849-3.9006-6.7467-7.7302-12.927-8.5102-13.735-2.5049-2.5932-3.0545 9.0493-2.0331 43.068 1.978 65.874 1.0824 89.13-3.4999 90.889-5.0592 1.9414-11.376-6.0212-22.178-27.955-25.132-51.034-32.92-99.847-27.312-171.2 1.2937-16.46 3.8287-25.444 14.976-53.068 4.6749-11.586 9.209-24.128 10.076-27.872l1.5757-6.807-3.2485 3.0736c-1.7867 1.6905-13.639 14.341-26.338 28.113-27.272 29.575-29.789 32.016-33.011 32.023-3.0633 6e-3 -5.0458-4.3522-6.0623-13.328-1.336-11.798-1.8978-10.952-6.0255 9.0667-6.4805 31.43-14.953 56.536-21.929 64.978-5.123 6.2003-8.4899-0.94753-14.267-30.288-2.3128-11.746-5.0011-23.996-5.974-27.223l-1.769-5.8667-0.8124 4.3883c-1.1777 6.3623-3.9666 34.673-5.2379 53.172-1.3911 20.243-6.8738 56.258-9.3282 61.276-2.7147 5.5502-5.5022 5.4888-10.538-0.23217-2.2793-2.5893-6.5422-8.854-9.4732-13.922-2.931-5.0675-5.6891-9.8141-6.1291-10.548-1.1003-1.8352-2.5222 0.4194-4.5399 7.199-2.8546 9.5915-3.6604 20.874-3.6947 51.733-0.049 43.651-1.9502 60.038-8.3337 71.812-1.5343 2.8298-4.0655 6.0537-5.625 7.1642-2.8075 1.9992-2.8564 1.9958-4.9611-0.34516-6.4542-7.1787-16.246-25.603-21.381-40.231-12.679-36.118-15.661-85.247-7.6042-125.29 9.5606-47.518 39.723-103.58 77.205-143.49 54.789-58.346 122.75-95.473 208-113.62 18.11-3.8562 24.214-5.7185 23.346-7.1225-0.5213-0.8435-12.163-1.0287-40.838-0.6497-22.06 0.2915-40.708 0.3208-41.442 0.065-2.2833-0.7964-1.4909-4.2878 3.0008-13.221 2.3837-4.741 4.0387-8.9154 3.6778-9.2763-1.1317-1.1317-13.546 2.64-36.512 11.093-49.377 18.174-54.982 19.736-56.51 15.753-0.9513-2.4792 2.8503-9.0707 10.978-19.035 10.588-12.98 17.557-22.164 17.138-22.584-0.6055-0.6054-7.5911 2.5303-24.7 11.088-8.797 4.4-18.397 8.9422-21.333 10.094-2.9363 1.1516-11.875 5.918-19.863 10.592-7.9885 4.6741-16.342 8.7932-18.563 9.1537l-4.0381 0.6552 0.5933-4.4232c0.346-2.58 3.2978-9.235 7.0836-15.97 6.3815-11.354 8.954-18.338 6.7542-18.338-3.0718 0-17.417 12.775-42.746 38.067-15.459 15.436-28.75 28.066-29.537 28.066-2.4129 0-3.028-2.2188-3.6367-13.118l-0.5862-10.497-20.287 15.808c-38.854 30.274-56.442 40.26-61.682 35.019-9.1223-9.1223 17.741-55.774 52.421-91.037 27.186-27.643 77.241-53.515 122.88-63.515 27.508-6.027 33.67-6.5383 76.8-6.3727 36.348 0.1396 42.629 0.4392 68.8 3.2821 15.84 1.7206 28.972 2.9992 29.183 2.8411 0.7133-0.5351-4.5237-7.189-14.551-18.488-10.442-11.767-14.68-18.334-13.617-21.104 1.2727-3.3165 10.651-0.8254 27.187 7.2218 41.704 20.295 61.604 38.357 83.888 76.14 14.431 24.468 14.578 24.678 15.534 22.094 0.4587-1.24 1.5918-9.5787 2.518-18.53 6.7037-64.792 29.584-108.19 78.664-149.22 10.786-9.0159 12.203-10.554 10.133-11.004-1.3231-0.2875-12.43-1.0173-24.683-1.6217-165.7-8.1736-324.33 24.364-470.52 96.511-172.39 85.076-313.85 219.01-409.12 387.34-17.277 30.529-40.345 78.33-52.435 108.65-1.1696 2.9333-2.991 7.4933-4.0477 10.133l-1.9213 4.8 11.36-5.5448c10.5-5.1251 44.885-17.696 68.095-24.895 35.519-11.017 56.387-4.2654 87.822 28.414 11.207 11.651 19.388 21.119 29.776 34.458 14.161 18.184 30.855 30.409 54.137 39.644 21.762 8.632 31.929 16.301 49.399 37.26 13.302 15.958 18.152 19.905 35.613 28.974 8.2781 4.2999 18.651 10.162 23.051 13.027 11.001 7.1629 24.553 21.148 35.27 36.396 11.32 16.106 26.654 31.793 36.73 37.575 10.306 5.9148 23.403 10.931 45.333 17.364 27.521 8.0726 44.871 13.835 80.699 26.803l32.165 11.642 27.035 0.876c39.471 1.279 48.652 1.2922 78.768 0.11385zm-306.38-29.017c-5.4096-7.7241-24.581-30.847-35.898-43.298-9.797-10.778-17.55-17.128-36.385-29.803-16.004-10.769-27.128-19.515-46.933-36.902-18.231-16.005-32.712-26.602-49.754-36.412-17.283-9.9486-28.215-18.265-47.131-35.855-29.8-27.71-37.238-34.354-45.515-40.658-18.285-13.927-26.731-15.173-49.6-7.3189-13.002 4.4653-34.879 13.723-47.447 20.078l-6.2486 3.1597 15.381 0.73835c50.471 2.4228 60.634 7.373 96.422 46.967 36.209 40.058 44.842 46.783 73.55 57.292 13.085 4.79 27.014 11.956 34.946 17.978 3.9254 2.9803 13.963 11.762 22.306 19.514 32.239 29.957 44.555 39.672 60.157 47.453 14.746 7.3543 63.826 25.339 65.807 24.114 0.4913-0.30362-1.1543-3.4756-3.6568-7.0489zm994.37-2.4731c43.229-14.07 52.94-19.966 92.285-56.023 34.305-31.439 37.493-33.764 55.599-40.549 32.495-12.177 38.232-16.263 75.601-53.839 16.427-16.518 33.22-32.758 37.319-36.09 9.2503-7.5182 15.443-9.5837 48.519-16.183 13.184-2.6306 24.342-5.1528 24.794-5.6048s-8.4153-4.4832-19.705-8.9583c-40.151-15.915-52.577-18.331-65.282-12.693-5.4285 2.409-19.814 14.495-43.465 36.517-28.912 26.921-43.385 38.263-63.78 49.986-18.147 10.43-33.979 22.36-57.754 43.522-17.454 15.536-31.054 26.219-40.379 31.721-12.039 7.1032-18.848 12.922-32.034 27.376-14.386 15.769-33.022 37.385-37.614 43.629l-3.3259 4.5226 5.2874-0.63141c2.9081-0.34727 13.679-3.3629 23.936-6.7013zm-388.87-822.12c18.386-11.828 39.91-24.22 42.144-24.263 4.5511-0.088-2.393-1.9345-11.886-3.1604l-10.361-1.338-5.1058 4.2803c-6.9965 5.8653-33.372 32.982-33.372 34.309 0 1.7774 3.0441 0.1673 18.58-9.8277z"
    stroke-width="1.0667"
  />
</svg>